<svg width="25" height="26" viewBox="0 0 25 26" fill="none" xmlns="http://www.w3.org/2000/svg">
<g id="Frame" clip-path="url(#clip0_197_67)">
<path id="Vector" d="M13.5417 0C14.0361 0.0880208 14.5372 0.128646 15.0185 0.264062C18.9478 1.33385 21.4069 3.92031 22.4288 7.94896C22.7123 9.06614 22.6991 10.2104 22.6793 11.3547C22.6727 11.612 22.7321 11.8286 22.8507 12.0521C23.5166 13.3453 24.1561 14.6521 24.8484 15.925C25.2703 16.7036 24.7165 17.4484 23.9913 17.374C23.6353 17.3333 23.2661 17.374 22.9035 17.3672C22.7453 17.3672 22.6793 17.4214 22.6859 17.5906C22.6925 17.7937 22.6925 17.9969 22.6859 18.2C22.6727 18.4505 22.5211 18.6062 22.2969 18.5995C22.0794 18.5927 21.9475 18.4505 21.9409 18.2C21.9343 17.9495 21.9343 17.6922 21.9475 17.4417C21.9673 16.9812 22.3101 16.6292 22.7584 16.6156C23.1672 16.6021 23.5825 16.6156 23.9913 16.6089C24.2682 16.6089 24.3012 16.5411 24.1759 16.2906C23.5232 15.0177 22.8837 13.7448 22.2178 12.4786C22.02 12.0995 21.9212 11.7271 21.9343 11.2937C21.9541 10.3187 21.9343 9.35052 21.7629 8.38906C21.0905 4.62448 18.0182 1.51667 14.3394 0.907292C11.6429 0.460417 9.21677 1.11042 7.06751 2.85052C6.9818 2.91823 6.90269 2.99271 6.82358 3.06719C6.7972 3.0875 6.77743 3.11458 6.77083 3.12135C7.13344 3.49375 7.49604 3.85937 7.89161 4.26562C7.98391 4.16406 8.09599 4.0151 8.22126 3.88646C8.51134 3.59531 8.84757 3.59531 9.14425 3.88646C9.46071 4.19792 9.76398 4.51615 10.0672 4.84115C10.153 4.93594 10.2255 4.95625 10.3441 4.89531C10.5287 4.80052 10.7133 4.7125 10.9111 4.65156C11.0562 4.60417 11.0825 4.52969 11.0759 4.39427C11.0694 3.97448 11.0694 3.54792 11.0759 3.12812C11.0825 2.65417 11.3199 2.41042 11.7814 2.41042C12.4077 2.41042 13.034 2.41042 13.6603 2.41042C14.1086 2.41042 14.3526 2.6474 14.3592 3.10781C14.3724 3.5276 14.3658 3.95417 14.3592 4.37396C14.3592 4.52969 14.3855 4.63125 14.557 4.6651C14.6493 4.68542 14.7416 4.73281 14.8339 4.77344C15.2624 4.95625 15.2624 4.95625 15.5854 4.62448C15.8162 4.3875 16.0469 4.14375 16.2843 3.90677C16.5941 3.60885 16.9238 3.60208 17.2271 3.9C17.6951 4.36719 18.1566 4.84115 18.605 5.3151C18.9016 5.62656 18.895 5.97187 18.605 6.27656C18.3149 6.58802 18.0182 6.89271 17.7149 7.19062C17.6094 7.29219 17.5765 7.37344 17.649 7.51562C17.7413 7.69167 17.8204 7.88125 17.8732 8.0776C17.9127 8.21979 17.9918 8.25364 18.1237 8.25364C18.5193 8.24687 18.9148 8.24687 19.3104 8.25364C19.8312 8.25364 20.0686 8.4974 20.0686 9.02552C20.0686 9.64844 20.0686 10.2781 20.0686 10.901C20.0686 11.3682 19.8246 11.6187 19.3697 11.6323C18.9478 11.6391 18.5258 11.6255 18.1105 11.6391C18.0314 11.6391 17.9325 11.7271 17.8863 11.8016C17.8138 11.9234 17.794 12.0792 17.7215 12.1943C17.5501 12.4583 17.6226 12.6344 17.8402 12.8307C18.1105 13.0677 18.3478 13.3385 18.5984 13.5958C18.9016 13.9141 18.9016 14.2594 18.5984 14.5776C18.1566 15.0448 17.7083 15.5052 17.2534 15.9589C16.9238 16.2906 16.5941 16.2839 16.2579 15.9453C15.9612 15.6474 15.6711 15.3495 15.3877 15.0448C15.2954 14.9432 15.2097 14.9161 15.091 14.9906C15.0053 15.0448 14.913 15.0786 14.8207 15.1193C14.3724 15.3156 14.3724 15.3156 14.3658 15.837C14.3658 16.1417 14.3724 16.4464 14.3658 16.751C14.3526 17.2453 14.1218 17.4823 13.6472 17.4823C13.0208 17.4823 12.3945 17.4823 11.7682 17.4823C11.3397 17.4823 11.0891 17.2318 11.0825 16.7917C11.0759 16.3516 11.0759 15.9115 11.0825 15.4714C11.0825 15.3427 11.0496 15.275 10.9243 15.2344C10.7265 15.1734 10.5353 15.0854 10.3573 14.9906C10.2255 14.9229 10.153 14.95 10.0607 15.0516C9.79035 15.3359 9.51345 15.6203 9.24314 15.8979C8.84757 16.3042 8.53771 16.3109 8.14214 15.9047C8.02347 15.7828 7.91799 15.6542 7.82569 15.5526C7.37078 16.0198 6.93565 16.4667 6.48075 16.9339C6.81039 17.225 6.83676 17.6583 6.83017 18.1052C6.81698 18.8839 6.83017 19.6625 6.82358 20.4411C6.82358 20.7661 6.69831 20.9354 6.45438 20.9354C6.21044 20.9354 6.07859 20.7661 6.07859 20.4479C6.07859 19.5948 6.08518 18.7417 6.07199 17.8818C6.07199 17.7328 6.00607 17.5906 5.95332 17.3875C5.35997 17.9969 4.82595 18.5385 4.29852 19.0937C4.23919 19.1615 4.21941 19.2766 4.20622 19.3714C4.19304 19.4797 4.20622 19.588 4.19963 19.7031C4.17326 20.0484 4.19304 20.3125 4.55564 20.5359C4.99077 20.8 5.08966 21.3891 4.89847 21.8698C4.70069 22.3641 4.226 22.6552 3.69198 22.601C3.2173 22.5536 2.80854 22.1677 2.70306 21.6734C2.59757 21.1724 2.80854 20.6443 3.25686 20.4073C3.41509 20.3193 3.45464 20.2245 3.45464 20.062C3.44146 18.7891 3.4019 18.9042 4.28534 18.0104C4.64794 17.6448 5.01055 17.2724 5.38634 16.8932C3.79088 15.0109 2.97337 12.8307 2.90084 10.3255C2.70306 10.3255 2.51846 10.312 2.33386 10.3323C2.27453 10.3391 2.2086 10.4203 2.17563 10.488C1.89214 11.0026 1.37131 11.2396 0.83729 11.0839C0.336235 10.9417 -0.0197777 10.4474 -0.00659209 9.90573C0.00659356 9.35729 0.388978 8.90365 0.929589 8.775C1.38449 8.67344 1.89873 8.8901 2.12948 9.33021C2.22838 9.51979 2.33386 9.58073 2.53165 9.56042C2.65032 9.54687 2.77558 9.56042 2.92722 9.56042C3.00633 8.35521 3.26345 7.1974 3.73154 6.10052C4.19963 5.00365 4.83914 4.02865 5.65665 3.14167C5.37315 2.85729 5.11603 2.57292 4.82595 2.3224C4.73365 2.24115 4.56883 2.20729 4.43697 2.20729C3.77769 2.19375 3.11841 2.20729 2.45913 2.20052C2.30749 2.20052 2.22838 2.24792 2.15586 2.38333C1.91192 2.85729 1.38449 3.09427 0.890032 2.96562C0.375792 2.82344 0.0197792 2.38333 7.36676e-07 1.85521C-0.0131849 1.32708 0.329642 0.832812 0.810918 0.677083C1.31857 0.514583 1.87236 0.717708 2.12948 1.20521C2.22838 1.39479 2.34045 1.43542 2.53165 1.43542C3.19093 1.42188 3.85021 1.43542 4.50949 1.42865C4.86551 1.42187 5.16878 1.55052 5.4193 1.80781C5.66983 2.07187 5.92695 2.33594 6.18407 2.60677C7.10048 1.76719 8.09599 1.13073 9.21677 0.683854C10.0541 0.352083 10.9243 0.128646 11.8209 0.0473958C11.8869 0.040625 11.9462 0.0135417 12.0055 0C12.5198 0 13.034 0 13.5417 0ZM7.4433 5.80937C7.75316 6.12083 8.05643 6.42552 8.3597 6.73698C8.70253 7.08906 8.7289 7.29219 8.52453 7.73229C8.43223 7.92865 8.34652 8.13177 8.274 8.3349C8.06303 8.9375 7.96414 9.01875 7.34441 9.01875C7.10047 9.01875 6.84995 9.01875 6.60601 9.01875C6.45438 9.01875 6.30274 9.01875 6.15111 9.01875C6.15111 9.64844 6.15111 10.2375 6.15111 10.8333C6.62579 10.8333 7.0741 10.8266 7.52901 10.8333C7.91139 10.8401 8.09599 10.9891 8.22785 11.3547C8.33333 11.6391 8.44541 11.9167 8.57067 12.1943C8.72231 12.5328 8.68935 12.7766 8.43223 13.0474C8.23444 13.2505 8.03666 13.4536 7.83887 13.6568C7.70702 13.7922 7.58175 13.9276 7.46967 14.0427C7.89821 14.4828 8.30696 14.8958 8.7355 15.3359C9.01899 15.038 9.31567 14.7198 9.61234 14.4083C9.96836 14.0427 10.153 14.0156 10.6013 14.2323C10.8056 14.3339 11.0232 14.4286 11.2342 14.5099C11.722 14.6859 11.8275 14.8281 11.8341 15.3562C11.8341 15.7964 11.8341 16.2297 11.8341 16.6766C12.4407 16.6766 13.0208 16.6766 13.6076 16.6766C13.6076 16.1958 13.6076 15.7286 13.6076 15.2615C13.6076 14.8755 13.7592 14.6724 14.1086 14.537C14.3592 14.4422 14.6163 14.3406 14.8602 14.2187C15.2888 14.0089 15.4866 14.0359 15.8294 14.388C16.1326 14.7062 16.4359 15.0245 16.7128 15.3021C17.1479 14.8552 17.5633 14.4354 17.9852 14.0021C17.6688 13.6839 17.3325 13.3453 17.0029 13.0068C16.7722 12.763 16.7392 12.5057 16.8776 12.1943C16.9831 11.9641 17.0886 11.7339 17.1743 11.4969C17.3853 10.8943 17.4974 10.813 18.1303 10.813C18.5193 10.813 18.9148 10.813 19.3104 10.813C19.3104 10.1901 19.3104 9.60104 19.3104 8.99844C18.8621 8.99844 18.4335 8.99844 18.005 8.99844C17.5237 8.99844 17.3589 8.86979 17.2073 8.40937C17.1282 8.17239 17.0293 7.93542 16.9238 7.71198C16.726 7.28542 16.7524 7.06875 17.0754 6.73698C17.3919 6.41875 17.7017 6.09375 17.9786 5.81615C17.5435 5.36927 17.1348 4.94948 16.7128 4.51615C16.4161 4.82083 16.0997 5.15937 15.7832 5.48437C15.5129 5.76198 15.2756 5.79583 14.9328 5.62656C14.7086 5.51823 14.4844 5.4099 14.2537 5.32865C13.7131 5.12552 13.6142 4.99687 13.6142 4.40781C13.6142 3.98802 13.6142 3.56823 13.6142 3.1349C13.2911 3.1349 13.0076 3.1349 12.7176 3.1349C12.4341 3.1349 12.1506 3.1349 11.8407 3.1349C11.8407 3.61562 11.8407 4.0625 11.8407 4.50937C11.8407 4.9901 11.7155 5.15937 11.2869 5.3151C11.0496 5.40312 10.8122 5.50469 10.5815 5.61302C10.1793 5.80937 9.96835 5.78229 9.6519 5.45052C9.33544 5.13229 9.02558 4.80729 8.72231 4.48906C8.28059 4.94948 7.87843 5.3625 7.4433 5.80937ZM3.66561 10.3187C3.73154 12.6073 4.46994 14.5911 5.8808 16.2703C6.32911 15.8099 6.75765 15.3698 7.19277 14.9161C7.11366 14.8349 7.00818 14.7401 6.90928 14.6385C6.51371 14.2323 6.51371 13.9141 6.90269 13.5078C7.21915 13.176 7.54219 12.851 7.85865 12.5328C7.75316 12.2755 7.64109 12.0453 7.56857 11.8083C7.51582 11.6391 7.43671 11.6052 7.28507 11.612C6.88291 11.6187 6.48075 11.6187 6.07199 11.612C5.6105 11.6052 5.37315 11.3615 5.36656 10.8943C5.36656 10.7047 5.36656 10.5151 5.36656 10.3187C4.79299 10.3187 4.23919 10.3187 3.66561 10.3187ZM5.37975 9.53333C5.37975 9.33021 5.37975 9.1474 5.37975 8.96458C5.38634 8.49062 5.62368 8.24687 6.07859 8.2401C6.46756 8.23333 6.85654 8.22656 7.23892 8.24687C7.44989 8.26042 7.54879 8.18594 7.60153 7.98281C7.64768 7.81354 7.7202 7.65104 7.80591 7.49531C7.86524 7.37344 7.84546 7.30573 7.75316 7.21094C7.44989 6.91302 7.15322 6.60833 6.86313 6.29687C6.54008 5.95833 6.54008 5.61979 6.86313 5.27448C7.00158 5.12552 7.14662 4.97656 7.25211 4.86823C6.86973 4.47552 6.51371 4.1099 6.1577 3.7375C4.85232 4.94948 3.57331 7.96927 3.71835 9.5401C4.25897 9.53333 4.79958 9.53333 5.37975 9.53333ZM0.751583 9.89219C0.731804 10.1156 0.896625 10.3187 1.12737 10.3391C1.34494 10.3594 1.52954 10.1969 1.55591 9.97344C1.58228 9.74323 1.42405 9.5401 1.1999 9.51302C0.982332 9.48594 0.777954 9.66198 0.751583 9.89219ZM1.5625 1.80104C1.55591 1.57083 1.37131 1.39479 1.14056 1.40156C0.922996 1.40833 0.751583 1.58437 0.751583 1.80781C0.751583 2.03125 0.949368 2.2276 1.16034 2.2276C1.3779 2.2276 1.56909 2.02448 1.5625 1.80104ZM3.84362 21.8359C4.05459 21.8292 4.25237 21.6193 4.23919 21.4026C4.2326 21.1724 4.0414 21.0031 3.81065 21.0099C3.59309 21.0167 3.43486 21.1927 3.43486 21.4161C3.44146 21.6531 3.62606 21.8427 3.84362 21.8359Z" fill="white"/>
<path id="Vector_2" d="M6.71809 25.9996C6.22363 25.7761 6.05221 25.3902 6.07199 24.8417C6.09836 24.0022 6.07859 23.1693 6.07859 22.3298C6.07859 22.0251 6.22363 21.8355 6.45438 21.8423C6.67853 21.849 6.81698 22.0183 6.81698 22.3162C6.81698 23.1897 6.82358 24.0563 6.81698 24.9298C6.81698 25.16 6.88291 25.2412 7.11366 25.2412C10.2123 25.2344 13.3043 25.2344 16.403 25.2412C16.6271 25.2412 16.7062 25.1667 16.7062 24.9365C16.693 24.2188 16.6996 23.5011 16.7062 22.7766C16.7062 22.1876 17.0556 21.8355 17.6358 21.8355C18.4995 21.8355 19.3631 21.8355 20.2334 21.8355C21.2553 21.8355 21.9343 21.1381 21.9475 20.0886C21.9475 20.0074 21.9475 19.9193 21.9541 19.8381C21.9739 19.6214 22.1255 19.4589 22.3233 19.4725C22.5277 19.486 22.6595 19.6079 22.6925 19.8178C22.9167 21.199 21.7893 22.5803 20.4246 22.5938C19.5345 22.6006 18.6445 22.6006 17.7545 22.5938C17.5303 22.5938 17.4446 22.6548 17.4512 22.8917C17.4644 23.5417 17.4314 24.1985 17.4644 24.8485C17.4908 25.3902 17.3128 25.7829 16.8183 25.9996C13.4428 25.9996 10.0804 25.9996 6.71809 25.9996Z" fill="white"/>
<path id="Vector_3" d="M19.3633 11.128C19.3633 9.4285 18.1238 7.94569 16.5284 7.74934C14.8274 7.53267 13.2913 8.57538 12.8496 10.2342C12.8298 10.3087 12.8166 10.3832 12.7902 10.4509C12.7177 10.6608 12.5397 10.7759 12.3551 10.7285C12.1639 10.6879 12.0321 10.5051 12.0782 10.2884C12.131 10.0176 12.2035 9.74673 12.309 9.48944C13.0342 7.72902 14.7747 6.79465 16.3965 6.95038C18.2689 7.12642 19.772 8.56183 20.0753 10.4848C20.4379 12.8071 18.7963 15.0009 16.5152 15.2582C14.4846 15.4884 12.6386 14.1884 12.1178 12.1571C12.0387 11.8525 12.1244 11.6493 12.3551 11.5884C12.5859 11.5275 12.7441 11.6493 12.8364 11.9608C13.2254 13.3014 14.0693 14.1613 15.4076 14.4457C17.458 14.8858 19.3567 13.2743 19.3633 11.128Z" fill="white"/>
</g>
<defs>
<clipPath id="clip0_197_67">
<rect width="25" height="26" fill="white"/>
</clipPath>
</defs>
</svg>
