<svg width="15" height="15" viewBox="0 0 15 15" fill="none" xmlns="http://www.w3.org/2000/svg">
<path id="Vector" d="M7.52251 0.486328C7.71001 0.319661 7.88709 0.319661 8.05376 0.486328L14.585 7.04883C14.7725 7.21549 14.7725 7.38216 14.585 7.54883L8.05376 14.1113C7.88709 14.278 7.71001 14.278 7.52251 14.1113L6.89751 13.4863C6.83501 13.4238 6.80376 13.3405 6.80376 13.2363C6.80376 13.1322 6.83501 13.0384 6.89751 12.9551L11.7413 8.11133H1.08501C0.835007 8.11133 0.710007 7.98633 0.710007 7.73633V6.86133C0.710007 6.61133 0.835007 6.48633 1.08501 6.48633H11.7413L6.89751 1.64258C6.73084 1.45508 6.73084 1.278 6.89751 1.11133L7.52251 0.486328Z" fill="white"/>
</svg>
